Coordinates
version=1
nRows=37
nColumns=34
inDegrees=no

Units are S.I. units (second, meters, Newtons, ...)
If the header above contains a line with 'inDegrees', this indicates whether rotational values are in degrees (yes) or radians (no).

endheader
time	pelvis_tilt	pelvis_list	pelvis_rotation	pelvis_tx	pelvis_ty	pelvis_tz	hip_flexion_r	hip_adduction_r	hip_rotation_r	knee_angle_r	ankle_angle_r	subtalar_angle_r	mtp_angle_r	hip_flexion_l	hip_adduction_l	hip_rotation_l	knee_angle_l	ankle_angle_l	subtalar_angle_l	mtp_angle_l	lumbar_extension	lumbar_bending	lumbar_rotation	arm_flex_r	arm_add_r	arm_rot_r	elbow_flex_r	pro_sup_r	arm_flex_l	arm_add_l	arm_rot_l	elbow_flex_l	pro_sup_l
190.018	0.142127	-0.245737	1.82597	0.189162	0.766585	0.353094	0.976819	0.139483	0.281928	1.26113	0.556715	0.0268237	0	0.0305296	-0.697215	-0.698806	0.549578	0.284175	-0.192249	0	0.0259311	0.172937	-0.189583	1.15447	-0.776799	0.186092	0.475411	2.09	1.17017	0.152077	1.19567	1.03	0.71896
190.038	0.149131	-0.24154	1.82707	0.186174	0.766808	0.357006	0.97676	0.137137	0.276048	1.25534	0.552748	0.0317908	0	0.0464843	-0.711049	-0.69494	0.578035	0.296444	-0.199614	0	0.0242572	0.177743	-0.185414	1.13033	-0.776584	0.170466	0.471561	2.09	1.18353	0.153384	1.1889	1.03816	0.716268
190.058	0.15588	-0.237385	1.82885	0.183044	0.767062	0.361007	0.976541	0.133952	0.270127	1.24937	0.548721	0.0365475	0	0.0639596	-0.724348	-0.687358	0.606583	0.30751	-0.206802	0	0.0227733	0.182243	-0.181689	1.10598	-0.776355	0.155032	0.467983	2.09	1.19669	0.154615	1.18173	1.04655	0.713448
190.078	0.162277	-0.233173	1.83135	0.179759	0.767366	0.365094	0.975973	0.129889	0.264269	1.24323	0.544675	0.0409542	0	0.0826206	-0.736722	-0.675336	0.634687	0.317551	-0.214007	0	0.0213615	0.186393	-0.178434	1.08145	-0.776121	0.139697	0.464649	2.09	1.20969	0.155689	1.17431	1.05528	0.710605
190.098	0.16825	-0.228905	1.83449	0.176321	0.767723	0.369262	0.974998	0.125016	0.258617	1.23688	0.540624	0.0449595	0	0.101956	-0.747922	-0.659873	0.661844	0.326815	-0.220904	0	0.0199983	0.190151	-0.175531	1.0567	-0.775847	0.124292	0.461525	2.09	1.22255	0.156516	1.16681	1.06447	0.70787
190.118	0.173769	-0.224642	1.8381	0.172742	0.768131	0.373504	0.97365	0.119446	0.253294	1.23029	0.536557	0.0486006	0	0.121418	-0.757843	-0.642686	0.687648	0.335579	-0.226935	0	0.0187267	0.193485	-0.172806	1.03171	-0.775464	0.108608	0.45859	2.09	1.23529	0.156996	1.15938	1.07418	0.705347
190.138	0.178836	-0.220469	1.84202	0.16904	0.768577	0.377812	0.972008	0.113272	0.248351	1.22342	0.532457	0.0519911	0	0.140565	-0.766504	-0.625385	0.711846	0.344115	-0.231543	0	0.0176208	0.196383	-0.170105	1.00645	-0.77489	0.0924479	0.455841	2.09	1.24792	0.157041	1.15213	1.08443	0.703067
190.158	0.183491	-0.216471	1.84616	0.165231	0.769047	0.382184	0.970167	0.106535	0.243757	1.21621	0.528304	0.0552965	0	0.159156	-0.774041	-0.609106	0.73439	0.352654	-0.234251	0	0.0167684	0.198859	-0.167338	0.980903	-0.77405	0.0756771	0.453296	2.09	1.26045	0.156583	1.14515	1.09524	0.700977
190.178	0.187801	-0.212715	1.85049	0.161326	0.769521	0.386617	0.96822	0.0992218	0.239399	1.20863	0.524082	0.0587091	0	0.17718	-0.7807	-0.594475	0.755466	0.361381	-0.234619	0	0.0162589	0.200954	-0.164493	0.955075	-0.772905	0.0582764	0.450987	2.09	1.27288	0.155594	1.1384	1.10656	0.698953
190.198	0.191839	-0.209235	1.85505	0.157322	0.76998	0.39111	0.966226	0.0912728	0.23512	1.20064	0.519785	0.0624252	0	0.194784	-0.786835	-0.581789	0.775477	0.370421	-0.232124	0	0.0161529	0.202732	-0.161602	0.928992	-0.771458	0.0403591	0.448946	2.09	1.28517	0.154094	1.1318	1.11833	0.696895
190.218	0.195671	-0.206031	1.8599	0.153212	0.770408	0.395666	0.96422	0.0826039	0.230746	1.19226	0.515421	0.0666388	0	0.212208	-0.792895	-0.571231	0.795004	0.379851	-0.226084	0	0.0164797	0.204275	-0.158716	0.902718	-0.769761	0.0221842	0.447189	2.09	1.29728	0.152154	1.12518	1.13044	0.694762
190.238	0.199344	-0.203075	1.86508	0.148978	0.770789	0.400284	0.962208	0.0731271	0.226113	1.18352	0.511006	0.071536	0	0.229691	-0.799383	-0.563025	0.814723	0.389694	-0.215689	0	0.0172335	0.205665	-0.15587	0.87635	-0.767902	0.00413543	0.445708	2.09	1.30915	0.149886	1.11831	1.14277	0.692564
190.258	0.202875	-0.200306	1.87062	0.144603	0.771111	0.404965	0.960161	0.0627847	0.221096	1.17446	0.506555	0.0772628	0	0.247386	-0.806724	-0.557382	0.835217	0.39991	-0.200293	0	0.01836	0.206977	-0.153056	0.850007	-0.765974	-0.0133515	0.444457	2.09	1.32073	0.147418	1.11101	1.1552	0.690343
190.278	0.206251	-0.197609	1.87648	0.140088	0.771383	0.409705	0.957968	0.0516045	0.215641	1.16511	0.502066	0.0838337	0	0.265283	-0.814987	-0.554097	0.856651	0.410342	-0.180154	0	0.0197206	0.208248	-0.150225	0.823791	-0.764013	-0.0299355	0.443356	2.09	1.33197	0.144854	1.10314	1.16759	0.688159
190.298	0.209435	-0.194767	1.88263	0.135474	0.771648	0.414494	0.95535	0.0397881	0.2098	1.15545	0.497493	0.0909499	0	0.283174	-0.823396	-0.551672	0.87824	0.420606	-0.157792	0	0.0210295	0.209447	-0.147308	0.797722	-0.761895	-0.045603	0.442277	2.09	1.34282	0.142218	1.09475	1.17987	0.686097
190.318	0.212379	-0.191397	1.88905	0.130882	0.77201	0.419315	0.951745	0.0278312	0.203777	1.14526	0.492707	0.0977224	0	0.300651	-0.829605	-0.545964	0.897518	0.429932	-0.140003	0	0.0217655	0.210435	-0.144277	0.771659	-0.759186	-0.0609862	0.441043	2.09	1.35323	0.139377	1.08607	1.19206	0.684309
190.338	0.21502	-0.187745	1.89557	0.126161	0.772351	0.42418	0.947631	0.0152476	0.197368	1.13495	0.487919	0.105241	0	0.317791	-0.836651	-0.542409	0.917668	0.438924	-0.118757	0	0.0222699	0.211396	-0.140967	0.746072	-0.756476	-0.0748681	0.439612	2.09	1.36332	0.136615	1.07698	1.20388	0.682648
190.358	0.217437	-0.183842	1.90215	0.121313	0.772655	0.429089	0.943093	0.00217393	0.190573	1.1246	0.483162	0.113369	0	0.334665	-0.844812	-0.54134	0.93895	0.447651	-0.0935472	0	0.0226088	0.212424	-0.137365	0.721121	-0.753779	-0.0871051	0.437914	2.09	1.37314	0.133942	1.06763	1.21523	0.681048
190.378	0.219849	-0.179489	1.90907	0.116533	0.773041	0.43404	0.937774	-0.0106122	0.183622	1.11392	0.478239	0.120489	0	0.351574	-0.850683	-0.536285	0.958017	0.455473	-0.074004	0	0.0225332	0.213431	-0.133747	0.696623	-0.750325	-0.0990058	0.435812	2.09	1.38264	0.131032	1.05847	1.2263	0.679654
190.398	0.222342	-0.174676	1.91642	0.111859	0.773519	0.439032	0.931662	-0.0228942	0.176595	1.10291	0.473152	0.126164	0	0.368689	-0.853692	-0.526009	0.974318	0.462312	-0.061889	0	0.0220612	0.214434	-0.130263	0.67265	-0.745923	-0.110923	0.433322	2.09	1.39185	0.127772	1.0497	1.23713	0.678493
190.418	0.224849	-0.169474	1.9241	0.107212	0.774031	0.444058	0.924923	-0.0348832	0.169494	1.09182	0.468043	0.130891	0	0.38589	-0.85538	-0.513303	0.989304	0.468455	-0.0530846	0	0.0213241	0.215502	-0.126907	0.649431	-0.740847	-0.122457	0.430587	2.09	1.40077	0.124224	1.04125	1.2476	0.677529
190.438	0.227119	-0.163965	1.93176	0.102405	0.774461	0.449104	0.917788	-0.0471684	0.162261	1.08104	0.463162	0.136041	0	0.402622	-0.859103	-0.504523	1.00608	0.47444	-0.0384459	0	0.0204651	0.216725	-0.123482	0.627305	-0.735803	-0.132502	0.427848	2.09	1.40945	0.120612	1.03281	1.25752	0.676673
190.458	0.229427	-0.158204	1.93969	0.097566	0.774868	0.454185	0.910246	-0.0592703	0.155006	1.07029	0.458327	0.140561	0	0.419465	-0.862764	-0.49566	1.02277	0.480137	-0.0236536	0	0.0195726	0.218108	-0.120278	0.606209	-0.730356	-0.141698	0.425096	2.09	1.41779	0.116715	1.0246	1.2671	0.675981
190.478	0.231879	-0.152223	1.948	0.0927474	0.77528	0.459309	0.902278	-0.0709946	0.147776	1.05943	0.453423	0.144057	0	0.436603	-0.865463	-0.485129	1.03859	0.485528	-0.0110992	0	0.0186797	0.219647	-0.11742	0.586139	-0.724372	-0.150175	0.422351	2.09	1.42575	0.112406	1.01672	1.2765	0.67543
190.498	0.234474	-0.146032	1.9567	0.0879625	0.775707	0.464478	0.893855	-0.082321	0.140568	1.04833	0.448378	0.146519	0	0.453977	-0.867003	-0.472769	1.05336	0.490648	-0.00122977	0	0.017774	0.221317	-0.114923	0.567129	-0.717889	-0.157783	0.419633	2.09	1.43334	0.107579	1.00924	1.28587	0.67498
190.518	0.237149	-0.139649	1.96572	0.0832066	0.776149	0.469693	0.884954	-0.0933296	0.133339	1.03694	0.443149	0.148126	0	0.471432	-0.867494	-0.459035	1.06719	0.495543	0.00640011	0	0.0168253	0.223073	-0.11278	0.549252	-0.71099	-0.164299	0.416929	2.09	1.44063	0.102081	1.00227	1.2954	0.674595
190.538	0.239824	-0.133112	1.975	0.0784718	0.776604	0.474951	0.875586	-0.104147	0.126015	1.0252	0.437718	0.149129	0	0.488827	-0.867114	-0.444503	1.08026	0.50026	0.012485	0	0.0158147	0.224847	-0.111014	0.53263	-0.703724	-0.169571	0.414187	2.09	1.44778	0.0956745	0.995979	1.30535	0.674238
190.558	0.242428	-0.126488	1.98452	0.0737542	0.777062	0.480249	0.865798	-0.114908	0.118508	1.01311	0.432087	0.149802	0	0.506074	-0.865994	-0.429626	1.09275	0.504845	0.0176623	0	0.0147497	0.226562	-0.109706	0.517445	-0.696077	-0.173539	0.411314	2.09	1.455	0.0880224	0.990611	1.316	0.673828
190.578	0.244917	-0.119866	1.99422	0.0690545	0.777514	0.485578	0.855672	-0.125718	0.11073	1.00068	0.426281	0.150403	0	0.523141	-0.864207	-0.414679	1.10476	0.509347	0.0224114	0	0.01367	0.228148	-0.108983	0.50391	-0.687977	-0.17621	0.408187	2.09	1.46253	0.0787535	0.98642	1.32764	0.673252
190.598	0.247287	-0.113336	2.00408	0.0643765	0.77795	0.490926	0.845291	-0.136632	0.102611	0.987945	0.420332	0.151158	0	0.540019	-0.861788	-0.399797	1.11634	0.513813	0.0270518	0	0.0126355	0.229565	-0.108952	0.492198	-0.679358	-0.17762	0.404696	2.09	1.47054	0.0676219	0.98355	1.34042	0.672454
190.618	0.249563	-0.106945	2.01405	0.0597217	0.778367	0.496281	0.834691	-0.147633	0.0940951	0.97488	0.414271	0.152233	0	0.556674	-0.858766	-0.385018	1.12748	0.518287	0.0317658	0	0.0116949	0.230822	-0.109574	0.482282	-0.670246	-0.177889	0.400796	2.09	1.47907	0.0548085	0.981821	1.3541	0.671593
190.638	0.251799	-0.100714	2.0241	0.0550903	0.778764	0.501627	0.823874	-0.158655	0.085156	0.961459	0.408124	0.153717	0	0.573067	-0.85517	-0.370325	1.13816	0.522801	0.0366283	0	0.0108958	0.231958	-0.110736	0.474017	-0.660732	-0.177072	0.396503	2.09	1.48801	0.0406689	0.980934	1.3683	0.670899
190.658	0.254047	-0.0946252	2.03419	0.0504786	0.779147	0.506951	0.812787	-0.169601	0.0757824	0.947624	0.401902	0.155611	0	0.589144	-0.851018	-0.355657	1.14835	0.527373	0.041613	0	0.0102667	0.233036	-0.1122	0.467066	-0.650998	-0.175251	0.391916	2.09	1.49717	0.0257789	0.98049	1.38251	0.67062
190.678	0.256336	-0.0885871	2.04432	0.0458784	0.779534	0.512247	0.801287	-0.18037	0.0659726	0.933284	0.395587	0.157806	0	0.604825	-0.846298	-0.340898	1.158	0.532	0.0465872	0	0.00978805	0.234118	-0.113487	0.460755	-0.641375	-0.172793	0.387271	2.09	1.50618	0.0111395	0.979899	1.39595	0.671132
190.698	0.258645	-0.0824246	2.05453	0.0412776	0.779951	0.517524	0.789114	-0.190878	0.0557281	0.918315	0.389128	0.160101	0	0.619975	-0.840952	-0.325885	1.16708	0.536663	0.0513233	0	0.0093622	0.235256	-0.11383	0.454049	-0.632347	-0.1705	0.38294	2.09	1.51457	-0.00185919	0.97847	1.40759	0.672914
190.718	0.260958	-0.0761183	2.06487	0.0366699	0.780405	0.522781	0.776216	-0.201108	0.0450843	0.902702	0.382504	0.162289	0	0.634622	-0.834884	-0.310487	1.1756	0.541346	0.0555877	0	0.00900169	0.236434	-0.11305	0.446599	-0.624048	-0.168502	0.379076	2.09	1.52211	-0.0128375	0.975984	1.41721	0.676059
190.738	0.263251	-0.0697396	2.0754	0.0320543	0.780885	0.528015	0.762675	-0.211079	0.0341136	0.886507	0.375712	0.164158	0	0.648863	-0.827997	-0.294637	1.18361	0.546032	0.0591692	0	0.00876656	0.237592	-0.111312	0.438498	-0.616395	-0.166585	0.375681	2.09	1.52876	-0.0219892	0.972454	1.42506	0.680376
